<?xml version="1.0" encoding="UTF-8"?>
<svg width="84px" height="85px" viewBox="0 0 84 85" version="1.1" xmlns="http://www.w3.org/2000/svg" xmlns:xlink="http://www.w3.org/1999/xlink">
    <!-- Generator: Sketch 59 (86127) - https://sketch.com -->
    <title>bot icon</title>
    <desc>Created with Sketch.</desc>
    <defs>
        <rect id="path-1" x="0" y="0" width="107" height="99"></rect>
        <polygon id="path-3" points="0.383884681 0.421601884 40.0507459 0.421601884 40.0507459 61.1141557 0.383884681 61.1141557"></polygon>
        <polygon id="path-5" points="0 0.0093749321 13.7474941 0.0093749321 13.7474941 10.9183868 0 10.9183868"></polygon>
        <polygon id="path-7" points="-0.000102288159 0.000170166835 16.3660031 0.000170166835 16.3660031 11.9116784 -0.000102288159 11.9116784"></polygon>
        <polygon id="path-9" points="0.311258385 0.0071753682 7.16919584 0.0071753682 7.16919584 6.93989827 0.311258385 6.93989827"></polygon>
    </defs>
    <g id="Symbols" stroke="none" stroke-width="1" fill="none" fill-rule="evenodd">
        <g id="molecules-/-widgets" transform="translate(-233.000000, -2.000000)">
            <g id="botIcon">
                <g transform="translate(221.000000, 0.000000)">
                    <mask id="mask-2" fill="white">
                        <use xlink:href="#path-1"></use>
                    </mask>
                    <g id="Rectangle"></g>
                    <g id="atoms/projectbot-logo/ak-iso-gap" mask="url(#mask-2)">
                        <g transform="translate(-39.000000, -42.000000)">
                            <g id="projectbot-logo-blueish" transform="translate(51.914286, 44.507143)">
                                <path d="M1.2,23.9142857 C0.557142857,25.1706522 0,27.1201863 0,28.2877407 L0,30.8862531 L36.9887143,52.2180559 C37.9534286,52.7751894 38.3605714,52.9073245 39.4285714,53.0706522 L39.4285714,46.1389752 C38.2285714,45.8357143 37.5917143,45.4193804 36.4834286,44.7777671 L1.2,23.9142857 Z M39.4285714,65.0962453 L39.4285714,83.7 C38.4694286,83.5249752 38.1587143,83.3265559 37.2857143,82.8335404 L4.46742857,64.056927 C1.70528571,62.4998991 0,59.5976925 0,56.4507112 L0,43.218573 L36.8142857,63.9880435 C37.71,64.4927562 38.4437143,64.9268525 39.4285714,65.0962453 L39.4285714,65.0962453 Z" id="Fill-1" fill="#21D2D6"></path>
                                <g id="Group-5" transform="translate(42.057143, 22.585714)">
                                    <mask id="mask-4" fill="white">
                                        <use xlink:href="#path-3"></use>
                                    </mask>
                                    <g id="Clip-4"></g>
                                    <path d="M40.0508312,4.59731131 L40.0508312,33.9807131 C40.0508312,37.108811 38.0623239,39.9972195 35.3399069,41.5614852 L3.22016219,60.0288353 C2.23465064,60.594901 1.47515429,60.9568189 0.383884681,61.1141557 L0.383884681,42.5271776 C1.47813939,42.3637727 2.24019441,42.2268074 3.22314729,41.649039 L12.9106704,36.0668341 L12.9106704,22.5454067 L3.08881751,28.6290955 C2.14595033,29.1895265 1.4401859,29.7547253 0.391560669,29.9324335 L0.391560669,22.9974791 C1.60863119,22.8111022 2.30842541,22.3187204 3.37666705,21.6971751 L38.9079619,0.421601884 C39.5565829,1.65602377 40.0508312,3.1587417 40.0508312,4.59731131" id="Fill-3" fill="#208484" mask="url(#mask-4)"></path>
                                </g>
                                <path d="M44.9321284,1.19350743 C43.5986361,0.418804773 42.05291,0.0180965025 40.5600293,0.000861738215 C40.5208215,0 40.598811,0 40.5600293,0 C39.0428568,0 37.4685773,0.389074804 36.1099408,1.17325658 L3.42765847,19.8639276 C2.90218833,20.1681212 2.41379516,20.5188486 1.97142857,20.9135247 L37.0381435,41.5581872 C38.1308486,42.1954426 39.3488484,42.5142857 40.5685528,42.5142857 C40.5851735,42.5142857 40.601368,42.5142857 40.6179887,42.5138548 C41.8172369,42.5052375 43.016485,42.1863943 44.0925695,41.5581872 L79.5142857,20.8445857 C79.0373992,20.3973436 78.509372,20.0026675 77.929778,19.6661587 L44.9321284,1.19350743 Z" id="Fill-6" fill="#21D2D6"></path>
                            </g>
                            <g id="projectbot-word-blueish" transform="translate(7.228571, 141.492857)">
                                <g id="Group-3" transform="translate(0.000000, 1.323520)">
                                    <mask id="mask-6" fill="white">
                                        <use xlink:href="#path-5"></use>
                                    </mask>
                                    <g id="Clip-2"></g>
                                    <path d="M8.63685042,8.13011157 L3.20004658,8.13011157 L3.20004658,10.9183868 L0.986350802,10.9183868 C0.441604985,10.9183868 -3.43688213e-05,10.4550947 -3.43688213e-05,9.88305342 L-3.43688213e-05,5.34183631 L8.94754457,5.34183631 C9.94149088,5.34183631 10.5164813,4.83627179 10.5164813,4.08593632 C10.5164813,3.31991914 9.94149088,2.84674075 8.94754457,2.84674075 L-3.43688213e-05,2.84674075 L-3.43688213e-05,1.00039048 C0.0226490532,0.446417221 0.532682361,0.0093749321 1.06093114,0.0093749321 L8.65266008,0.0093749321 C11.8678633,0.0093749321 13.7474941,1.67265834 13.7474941,4.10229983 C13.7474941,6.51591872 11.8678633,8.13011157 8.63685042,8.13011157" id="Fill-1" fill="#FFFFFF" mask="url(#mask-6)"></path>
                                </g>
                                <path d="M30.7682781,12.5734383 L27.136391,12.5734383 C26.782195,12.5734383 26.4459156,12.3994162 26.2178244,12.0984809 L24.323496,9.59713178 L19.5125635,9.59713178 L19.5125635,12.5734383 L17.3415626,12.5734383 C16.8109577,12.5734383 16.380961,12.0953168 16.380961,11.5057508 L16.380961,6.82226906 L25.1859012,6.82226906 C26.1540829,6.82226906 26.9103671,6.33465541 26.9103671,5.56122351 C26.9103671,4.68654234 26.2598593,4.24955332 25.1859012,4.24955332 L16.380961,4.24955332 L16.3661054,2.40069952 C16.3613218,1.80726632 16.7926966,1.32351983 17.326747,1.32351983 L24.928868,1.32351983 C27.228041,1.32351983 30.1329304,2.13070148 30.1329304,5.34255322 C30.1329304,7.09156399 29.1495887,8.53753008 27.4854188,8.90772271 C27.8334129,9.19318939 28.2117273,9.59713178 28.907371,10.3874386 L30.7682781,12.5734383 Z" id="Fill-4" fill="#FFFFFF"></path>
                                <g id="Group-8" transform="translate(33.386855, 0.661760)">
                                    <mask id="mask-8" fill="white">
                                        <use xlink:href="#path-7"></use>
                                    </mask>
                                    <g id="Clip-7"></g>
                                    <path d="M12.9188921,5.94716071 C12.9188921,3.46510726 11.6638164,2.9995308 8.1829504,2.9995308 C4.70242532,2.9995308 3.44734962,3.46510726 3.44734962,5.94716071 C3.44734962,8.4295545 4.70242532,8.91214764 8.1829504,8.91214764 C11.6638164,8.91214764 12.9188921,8.4295545 12.9188921,5.94716071 M16.3660031,5.94716071 C16.3660031,10.0668998 13.6216118,11.9118486 8.1829504,11.9118486 C2.72758194,11.9118486 -0.000102288159,10.0668998 -0.000102288159,5.94716071 C-0.000102288159,1.82742164 2.72758194,0.000170166835 8.1829504,0.000170166835 C13.6216118,0.000170166835 16.3660031,1.82742164 16.3660031,5.94716071" id="Fill-6" fill="#FFFFFF" mask="url(#mask-8)"></path>
                                </g>
                                <path d="M56.120984,9.0322517 C58.4817468,9.0322517 59.5795015,8.36873924 59.5746412,6.75885403 L59.5746412,2.40063223 C59.5725581,1.81282959 60.0339484,1.3347361 60.6046975,1.33263305 L63.5004889,1.32351983 L63.5004889,7.44304648 C63.5112131,10.8464833 61.2372431,12.5471502 56.7111747,12.5615211 L52.3826467,12.5734383 L52.3715372,9.0368083 L56.120984,9.0322517 Z" id="Fill-9" fill="#FFFFFF"></path>
                                <path d="M80.5212385,10.7590374 L80.5022795,12.5734383 L67.8979095,12.5734383 C67.2772111,12.5734383 66.7737099,12.0953168 66.7737099,11.5057508 L66.7737099,2.39120741 C66.7737099,1.8012898 67.2772111,1.32351983 67.8979095,1.32351983 L79.3746431,1.32351983 C79.9949977,1.32351983 80.4978115,1.80023512 80.4988426,2.38909805 L80.5022795,4.24955332 L70.4570015,4.24955332 L70.4570015,5.59462171 L77.8094933,5.59462171 L77.7349133,8.15046257 L70.4570015,8.15046257 L70.4570015,9.68080305 L79.3969827,9.68080305 C80.022149,9.68080305 80.5273686,10.1652527 80.5212385,10.7590374" id="Fill-11" fill="#FFFFFF"></path>
                                <path d="M96.1911133,9.68115461 L96.2326996,12.5734383 L88.9365425,12.5734383 C85.2226477,12.5734383 82.4851711,10.1016203 82.4851711,6.83914394 C82.4851711,3.54326937 85.2226477,1.32351983 88.9365425,1.32351983 L95.1748273,1.32351983 C95.7360702,1.32351983 96.1911133,1.80164136 96.1911133,2.39120741 L96.1911133,4.24955332 L88.9365425,4.24955332 C87.1438648,4.24955332 85.7986692,5.37630297 85.7986692,6.99066628 C85.7986692,8.58815471 87.1277115,9.68115461 88.9365425,9.68115461 L96.1911133,9.68115461 Z" id="Fill-13" fill="#FFFFFF"></path>
                                <path d="M110.634872,1.32351983 L110.634872,4.15076497 L106.982132,4.15076497 L106.982132,12.5734383 L104.679181,12.5734383 C104.116711,12.5734383 103.660729,12.0953168 103.660729,11.5057508 L103.660729,4.15076497 L100.160565,4.15076497 L100.160565,2.39120741 C100.160565,1.80164136 100.616546,1.32351983 101.179366,1.32351983 L110.634872,1.32351983 Z" id="Fill-15" fill="#FFFFFF"></path>
                                <path d="M159.078544,1.32351983 L159.078544,4.14654626 L155.425804,4.14654626 L155.425804,12.5734383 L153.122853,12.5734383 C152.560383,12.5734383 152.104052,12.0953168 152.104052,11.5057508 L152.104052,4.14654626 L148.604237,4.14654626 L148.604237,2.39120741 C148.604237,1.80164136 149.060218,1.32351983 149.623038,1.32351983 L159.078544,1.32351983 Z" id="Fill-17" fill="#21D2D6"></path>
                                <path d="M116.578633,8.13393925 L116.578633,9.68080305 L122.668788,9.68080305 C123.388127,9.68080305 123.691948,9.41185968 123.691948,8.89049627 C123.691948,8.40288262 123.388127,8.13393925 122.668788,8.13393925 L116.578633,8.13393925 Z M127.000978,9.2940871 C127.000978,11.1608705 126.025934,12.5734383 122.652978,12.5734383 L113.253449,12.5734383 L113.253449,6.79695675 C113.253449,6.20703914 113.707805,5.72926917 114.268361,5.72926917 L122.716904,5.72926917 C123.196349,5.72926917 123.644175,5.54399707 123.644175,4.97236059 C123.644175,4.41759898 123.18054,4.24955332 122.716904,4.24955332 L113.253449,4.24955332 L113.261354,2.38628557 C113.26376,1.79847732 113.717428,1.32351983 114.276265,1.32351983 L122.572899,1.32351983 C125.13097,1.32351983 126.777237,2.36589509 126.777237,4.4341223 C126.777237,5.76266736 126.057897,6.50270107 125.322748,6.78887087 C126.249675,7.07433755 127.000978,7.94901872 127.000978,9.2940871 L127.000978,9.2940871 Z" id="Fill-19" fill="#21D2D6"></path>
                                <path d="M142.53605,6.61127626 C142.53605,4.1292228 141.280975,3.66364634 137.800109,3.66364634 C134.319584,3.66364634 133.064508,4.1292228 133.064508,6.61127626 C133.064508,9.09367004 134.319584,9.57626319 137.800109,9.57626319 C141.280975,9.57626319 142.53605,9.09367004 142.53605,6.61127626 M145.983161,6.61127626 C145.983161,10.7310153 143.23877,12.5759641 137.800109,12.5759641 C132.34474,12.5759641 129.617056,10.7310153 129.617056,6.61127626 C129.617056,2.49153719 132.34474,0.664285714 137.800109,0.664285714 C143.23877,0.664285714 145.983161,2.49153719 145.983161,6.61127626" id="Fill-21" fill="#21D2D6"></path>
                                <g id="Group-25" transform="translate(164.970342, 0.000000)">
                                    <mask id="mask-10" fill="white">
                                        <use xlink:href="#path-9"></use>
                                    </mask>
                                    <g id="Clip-24"></g>
                                    <path d="M5.31978541,4.72905293 L4.30511805,4.72905293 L3.74857694,4.03924701 L3.19203584,4.03924701 L3.19203584,4.72905293 L2.42254833,4.72905293 L2.42254833,3.3851446 L3.94472082,3.3851446 C4.19024357,3.3851446 4.37027073,3.26104886 4.37027073,3.08426443 C4.37027073,2.85444466 4.2067032,2.76605245 3.94472082,2.76605245 L2.42254833,2.76605245 L2.42254833,2.07624652 L3.87956813,2.07624652 C4.45222595,2.07624652 5.17233459,2.25303095 5.17233459,3.0312291 C5.17233459,3.45585837 4.92681184,3.77407036 4.51772155,3.86246257 C4.59967677,3.93317635 4.68128908,4.03924701 4.86131624,4.21603144 L5.31978541,4.72905293 Z M0.933295084,3.47353682 C0.933295084,4.87048048 1.99699841,6.30312767 3.69919807,6.30312767 C5.27074944,6.30312767 6.6293544,5.04726492 6.6293544,3.47353682 C6.6293544,2.1116034 5.36882138,0.678956217 3.69919807,0.678956217 C1.99699841,0.678956217 0.933295084,2.1116034 0.933295084,3.47353682 L0.933295084,3.47353682 Z M0.311258385,3.47353682 C0.311258385,1.61660699 1.71889932,0.0071753682 3.71565769,0.0071753682 C5.71275898,0.0071753682 7.16943588,1.56357166 7.16943588,3.47353682 C7.16943588,5.3127882 5.6633801,6.93989827 3.71565769,6.93989827 C1.71889932,6.93989827 0.311258385,5.3127882 0.311258385,3.47353682 L0.311258385,3.47353682 Z" id="Fill-23" fill="#FFFFFF" mask="url(#mask-10)"></path>
                                </g>
                            </g>
                        </g>
                    </g>
                </g>
            </g>
        </g>
    </g>
</svg>