<svg xmlns="http://www.w3.org/2000/svg" viewBox="0 0 498.91 257.7"><defs><style>.cls-1{fill:#2b2e38;}.cls-2{fill:#4bbfb8;}.cls-3{fill:#69bfb8;}</style></defs><title>Asset 2</title><g id="Layer_2" data-name="Layer 2"><g id="Ebene_1" data-name="Ebene 1"><path class="cls-1" d="M25.13,248.55H9.31v8.18H2.87a3,3,0,0,1-2.87-3V240.37H26c2.9,0,4.57-1.48,4.57-3.68s-1.67-3.64-4.57-3.64H0v-5.42a3.15,3.15,0,0,1,3.09-2.9H25.18c9.35,0,14.82,4.88,14.82,12S34.53,248.55,25.13,248.55Z"/><path class="cls-1" d="M89.8,257H79.26a3.41,3.41,0,0,1-2.67-1.35l-5.49-7.12h-14V257h-6.3a2.92,2.92,0,0,1-2.79-3V240.62H73.6c2.81,0,5-1.39,5-3.59,0-2.49-1.88-3.73-5-3.73H48L48,228A2.92,2.92,0,0,1,50.79,225H72.85C79.53,225,88,227.27,88,236.41c0,5-2.86,9.09-7.69,10.14a38.43,38.43,0,0,1,4.13,4.21Z"/><path class="cls-1" d="M144,240.17c0,12.11-8.05,17.53-24,17.53s-24-5.42-24-17.53,8-17.47,24-17.47S144,228.07,144,240.17Zm-10.11,0c0-7.29-3.68-8.66-13.89-8.66s-13.89,1.37-13.89,8.66,3.68,8.72,13.89,8.72S133.89,247.47,133.89,240.17Z"/><path class="cls-1" d="M162.8,246.9c6.8,0,10-1.89,9.95-6.49V228a3,3,0,0,1,3-3l8.34,0v17.46c0,9.71-6.52,14.56-19.56,14.6L152,257l0-10.09Z"/><path class="cls-1" d="M234,251.74l-.06,5.16H197.27a3.16,3.16,0,0,1-3.27-3V227.94a3.16,3.16,0,0,1,3.27-3h33.39a3.17,3.17,0,0,1,3.28,3v5.29H204.72v3.83h21.39l-.22,7.27H204.72v4.35h26A3.16,3.16,0,0,1,234,251.74Z"/><path class="cls-1" d="M279.88,248.67l.12,8.23H258.77c-10.8,0-18.77-7-18.77-16.31s8-15.69,18.77-15.69h18.15a3,3,0,0,1,3,3v5.29H258.77c-5.21,0-9.13,3.21-9.13,7.8s3.87,7.65,9.13,7.65Z"/><path class="cls-1" d="M320,224.9v8H309.54v24h-6.6a3,3,0,0,1-2.92-3V232.94H290v-5a3,3,0,0,1,2.92-3Z"/><path class="cls-2" d="M461,224.9v8H450.54v24h-6.6a3,3,0,0,1-2.92-3V232.93H431v-5a3,3,0,0,1,2.92-3Z"/><path class="cls-2" d="M368,247.57c0,5.31-2.84,9.33-12.65,9.33H328V240.47a3,3,0,0,1,2.95-3h24.59c1.39,0,2.69-.53,2.69-2.15s-1.35-2.06-2.69-2.06H328l0-5.3a3,3,0,0,1,3-3h24.14c7.44,0,12.23,3,12.23,8.85,0,3.78-2.09,5.88-4.23,6.69A7,7,0,0,1,368,247.57Zm-30.33-3.3v4.4H355.4c2.09,0,3-.76,3-2.25s-.88-2.15-3-2.15Z"/><path class="cls-2" d="M424.8,240c0,12.11-8.05,17.53-24,17.53s-24-5.42-24-17.53,8-17.47,24-17.47S424.8,227.87,424.8,240Zm-10.11,0c0-7.29-3.68-8.66-13.89-8.66s-13.89,1.37-13.89,8.66,3.68,8.72,13.89,8.72S414.69,247.27,414.69,240Z"/><path class="cls-1" d="M478.91,230.72a10,10,0,1,1,20,0,10.1,10.1,0,0,1-10.07,10A9.88,9.88,0,0,1,478.91,230.72Zm1.81,0a8.08,8.08,0,0,0,8.07,8.16,8.42,8.42,0,0,0,8.54-8.16,8.56,8.56,0,0,0-8.54-8.06A8.06,8.06,0,0,0,480.72,230.72Zm12.79,3.62h-3l-1.62-2h-1.62v2h-2.24v-3.87h4.43c.72,0,1.25-.36,1.25-.87,0-.67-.48-.92-1.25-.92h-4.43v-2h4.24c1.67,0,3.77.51,3.77,2.75a2.31,2.31,0,0,1-1.91,2.4c.24.21.48.51,1,1Z"/><path class="cls-3" d="M234.67,150.06V193a12.9,12.9,0,0,1-5-2L153.1,147.66a20.13,20.13,0,0,1-10.43-17.56V99.56l85.9,47.94A18.67,18.67,0,0,0,234.67,150.06Zm-6.88-48.21h0L145.27,54a19.85,19.85,0,0,0-2.6,9.8v6L229,119a13.05,13.05,0,0,0,5.69,2V105c-2.8-.7-4.28-1.66-6.87-3.14Z"/><path class="cls-3" d="M335.67,62.55v67.79c0,7.22-4.66,13.88-11,17.49l-75.32,42.61a17.67,17.67,0,0,1-6.66,2.5V150.06a16.55,16.55,0,0,0,6.66-2L272,135.15V104l-23,14c-2.21,1.3-3.87,2.6-6.33,3V105c2.86-.43,4.5-1.57,7-3L333,52.91A21.28,21.28,0,0,1,335.67,62.55Z"/><path class="cls-3" d="M248.6,2.77A21.3,21.3,0,0,0,238.34,0h0A21.24,21.24,0,0,0,227.9,2.72L151.21,46.1a20.54,20.54,0,0,0-3.42,2.44l82.28,47.91a16.6,16.6,0,0,0,8.29,2.22h.11a16.54,16.54,0,0,0,8.16-2.22l83.11-48.07A20.3,20.3,0,0,0,326,45.64Z"/></g></g></svg>