<?xml version="1.0" encoding="UTF-8"?>
<svg width="1370px" height="709px" viewBox="0 0 1370 709" version="1.1" xmlns="http://www.w3.org/2000/svg" xmlns:xlink="http://www.w3.org/1999/xlink">
    <!-- Generator: Sketch 59 (86127) - https://sketch.com -->
    <title>projectbot-logo-blueish</title>
    <desc>Created with Sketch.</desc>
    <defs>
        <polygon id="path-1" points="0 0.0756526104 110.039886 0.0756526104 110.039886 88.1077811 0 88.1077811"></polygon>
        <polygon id="path-3" points="1.37467671 0.00137550201 133.422869 0.00137550201 133.422869 96.2851406 1.37467671 96.2851406"></polygon>
        <polygon id="path-5" points="1.12158434 0.0569457831 56.139739 0.0569457831 56.139739 55.0770261 1.12158434 55.0770261"></polygon>
    </defs>
    <g id="Intro" stroke="none" stroke-width="1" fill="none" fill-rule="evenodd">
        <g id="Login-Large-Device-Desktop" transform="translate(-756.000000, -456.000000)">
            <g id="projectbot-logo-blueish" transform="translate(756.000000, 456.000000)">
                <g id="Group-3" transform="translate(0.000000, 617.600402)">
                    <mask id="mask-2" fill="white">
                        <use xlink:href="#path-1"></use>
                    </mask>
                    <g id="Clip-2"></g>
                    <path d="M69.1324558,65.6073193 L25.6143233,65.6073193 L25.6143233,88.1077811 L7.89510643,88.1077811 C3.53476506,88.1077811 -0.000275100402,84.3691667 -0.000275100402,79.7529819 L-0.000275100402,43.1068574 L71.6193635,43.1068574 C79.5752671,43.1068574 84.1776968,39.0271185 84.1776968,32.9721586 C84.1776968,26.7906526 79.5752671,22.972259 71.6193635,22.972259 L-0.000275100402,22.972259 L-0.000275100402,8.07282129 C0.181291165,3.60243976 4.26378112,0.0756526104 8.4920743,0.0756526104 L69.259002,0.0756526104 C94.9946446,0.0756526104 110.039886,13.4978012 110.039886,33.1042068 C110.039886,52.5813153 94.9946446,65.6073193 69.1324558,65.6073193" id="Fill-1" fill="#FFFFFF" mask="url(#mask-2)"></path>
                </g>
                <path d="M246.214859,705.63253 L217.424728,705.63253 C214.617001,705.63253 211.951298,704.270783 210.143209,701.915924 L195.126784,682.34253 L156.990307,682.34253 L156.990307,705.63253 L139.780686,705.63253 C135.574557,705.63253 132.165954,701.891165 132.165954,697.277731 L132.165954,660.628855 L201.963109,660.628855 C209.637928,660.628855 215.633027,656.813213 215.633027,650.761004 C215.633027,643.916506 210.476422,640.497008 201.963109,640.497008 L132.165954,640.497008 L132.048193,626.029478 C132.010273,621.385783 135.429801,617.600402 139.663242,617.600402 L199.925594,617.600402 C218.151241,617.600402 241.17843,623.916707 241.17843,649.04988 C241.17843,662.736124 233.383436,674.051004 220.191487,676.947811 C222.950052,679.181627 225.948967,682.34253 231.463365,688.526787 L246.214859,705.63253 Z" id="Fill-4" fill="#FFFFFF"></path>
                <g id="Group-8" transform="translate(262.720884, 612.098394)">
                    <mask id="mask-4" fill="white">
                        <use xlink:href="#path-3"></use>
                    </mask>
                    <g id="Clip-7"></g>
                    <path d="M105.610219,48.0724197 C105.610219,28.0093474 95.4837731,24.2459739 67.3987731,24.2459739 C39.3165241,24.2459739 29.1900783,28.0093474 29.1900783,48.0724197 C29.1900783,68.138243 39.3165241,72.0391667 67.3987731,72.0391667 C95.4837731,72.0391667 105.610219,68.138243 105.610219,48.0724197 M133.422869,48.0724197 C133.422869,81.3733233 111.280038,96.2865161 67.3987731,96.2865161 C23.3827088,96.2865161 1.37467671,81.3733233 1.37467671,48.0724197 C1.37467671,14.7715161 23.3827088,0.00137550201 67.3987731,0.00137550201 C111.280038,0.00137550201 133.422869,14.7715161 133.422869,48.0724197" id="Fill-6" fill="#FFFFFF" mask="url(#mask-4)"></path>
                </g>
                <path d="M446.435947,677.922267 C465.110031,677.922267 473.79348,672.730193 473.755033,660.132624 L473.755033,626.028951 C473.738556,621.429316 477.388241,617.68817 481.902976,617.671714 L504.809237,617.600402 L504.809237,665.486522 C504.894068,692.118874 486.906531,705.426822 451.104468,705.539276 L416.864986,705.63253 L416.777108,677.957923 L446.435947,677.922267 Z" id="Fill-9" fill="#FFFFFF"></path>
                <path d="M642.359438,691.434598 L642.207683,705.63253 L541.317774,705.63253 C536.349482,705.63253 532.319277,701.891165 532.319277,697.277731 L532.319277,625.955201 C532.319277,621.339016 536.349482,617.600402 541.317774,617.600402 L633.181676,617.600402 C638.147218,617.600402 642.17192,621.330763 642.180173,625.938695 L642.207683,640.497008 L561.801667,640.497008 L561.801667,651.022349 L620.653655,651.022349 L620.056689,671.022149 L561.801667,671.022149 L561.801667,682.997269 L633.36049,682.997269 C638.364546,682.997269 642.408506,686.788153 642.359438,691.434598" id="Fill-11" fill="#FFFFFF"></path>
                <path d="M768.572751,683.00002 L768.905622,705.63253 L710.504558,705.63253 C680.777209,705.63253 658.865462,686.290221 658.865462,660.760904 C658.865462,634.970241 680.777209,617.600402 710.504558,617.600402 L760.438032,617.600402 C764.930422,617.600402 768.572751,621.341767 768.572751,625.955201 L768.572751,640.497008 L710.504558,640.497008 C696.155321,640.497008 685.387892,649.313976 685.387892,661.946586 C685.387892,674.447149 696.026024,683.00002 710.504558,683.00002 L768.572751,683.00002 Z" id="Fill-13" fill="#FFFFFF"></path>
                <path d="M878.945783,617.600402 L878.945783,639.723976 L850.164779,639.723976 L850.164779,705.63253 L832.019157,705.63253 C827.587289,705.63253 823.994478,701.891165 823.994478,697.277731 L823.994478,639.723976 L796.415663,639.723976 L796.415663,625.955201 C796.415663,621.341767 800.008474,617.600402 804.443092,617.600402 L878.945783,617.600402 Z" id="Fill-15" fill="#FFFFFF"></path>
                <path d="M1265.46185,617.600402 L1265.46185,639.690964 L1236.68084,639.690964 L1236.68084,705.63253 L1218.53522,705.63253 C1214.10335,705.63253 1210.50779,701.891165 1210.50779,697.277731 L1210.50779,639.690964 L1182.93173,639.690964 L1182.93173,625.955201 C1182.93173,621.341767 1186.52454,617.600402 1190.95916,617.600402 L1265.46185,617.600402 Z" id="Fill-17" fill="#21D2D6"></path>
                <path d="M927.569779,670.892851 L927.569779,682.997269 L976.31757,682.997269 C982.075422,682.997269 984.507309,680.892751 984.507309,676.813012 C984.507309,672.997369 982.075422,670.892851 976.31757,670.892851 L927.569779,670.892851 Z M1010.99398,679.971165 C1010.99398,694.578996 1003.18938,705.63253 976.191024,705.63253 L900.953815,705.63253 L900.953815,660.430783 C900.953815,655.814598 904.590643,652.075984 909.07753,652.075984 L976.702711,652.075984 C980.540361,652.075984 984.12492,650.626205 984.12492,646.153072 C984.12492,641.811988 980.413815,640.497008 976.702711,640.497008 L900.953815,640.497008 L901.017088,625.916687 C901.036345,621.317008 904.667671,617.600402 909.140803,617.600402 L975.55004,617.600402 C996.025763,617.600402 1009.20307,625.757129 1009.20307,641.941285 C1009.20307,652.337329 1003.44522,658.128193 997.560823,660.36751 C1004.98028,662.601325 1010.99398,669.445823 1010.99398,679.971165 L1010.99398,679.971165 Z" id="Fill-19" fill="#21D2D6"></path>
                <path d="M1138.61305,658.793936 C1138.61305,638.730863 1128.48661,634.96749 1100.40161,634.96749 C1072.31936,634.96749 1062.19291,638.730863 1062.19291,658.793936 C1062.19291,678.859759 1072.31936,682.760683 1100.40161,682.760683 C1128.48661,682.760683 1138.61305,678.859759 1138.61305,658.793936 M1166.4257,658.793936 C1166.4257,692.094839 1144.28287,707.008032 1100.40161,707.008032 C1056.38554,707.008032 1034.37751,692.094839 1034.37751,658.793936 C1034.37751,625.493032 1056.38554,610.722892 1100.40161,610.722892 C1144.28287,610.722892 1166.4257,625.493032 1166.4257,658.793936" id="Fill-21" fill="#21D2D6"></path>
                <g id="Group-25" transform="translate(1313.604418, 606.596386)">
                    <mask id="mask-6" fill="white">
                        <use xlink:href="#path-5"></use>
                    </mask>
                    <g id="Clip-24"></g>
                    <path d="M41.302749,37.5311225 L33.1625281,37.5311225 L28.6976486,32.0566245 L24.2327691,32.0566245 L24.2327691,37.5311225 L18.0595161,37.5311225 L18.0595161,26.8654799 L30.2712229,26.8654799 C32.2409418,26.8654799 33.6852189,25.8806205 33.6852189,24.4776084 C33.6852189,22.6536928 32.37299,21.9521867 30.2712229,21.9521867 L18.0595161,21.9521867 L18.0595161,16.4776888 L29.7485321,16.4776888 C34.3427088,16.4776888 40.1198173,17.8807008 40.1198173,24.0567048 C40.1198173,27.4266847 38.1500984,29.9521064 34.8681506,30.6536124 C35.5256406,31.2148173 36.1803795,32.0566245 37.6246566,33.4596365 L41.302749,37.5311225 Z M6.11190562,27.5669859 C6.11190562,38.6535321 14.6455201,50.0234317 28.301504,50.0234317 C40.9093554,50.0234317 51.8088333,40.0565442 51.8088333,27.5669859 C51.8088333,16.7582912 41.6961426,5.38839157 28.301504,5.38839157 C14.6455201,5.38839157 6.11190562,16.7582912 6.11190562,27.5669859 L6.11190562,27.5669859 Z M1.12158434,27.5669859 C1.12158434,12.8298574 12.4144558,0.0569457831 28.4335522,0.0569457831 C44.4553996,0.0569457831 56.1416647,12.4089538 56.1416647,27.5669859 C56.1416647,42.1638133 44.059255,55.0770261 28.4335522,55.0770261 C12.4144558,55.0770261 1.12158434,42.1638133 1.12158434,27.5669859 L1.12158434,27.5669859 Z" id="Fill-23" fill="#FFFFFF" mask="url(#mask-6)"></path>
                </g>
                <path d="M399.720884,151.305221 C395.594378,159.254227 392.018072,171.588892 392.018072,178.975985 L392.018072,195.416723 L629.448976,330.382625 C635.641486,333.907598 638.25494,334.743614 645.110442,335.776985 L645.110442,291.920399 C637.407631,290.001673 633.319639,287.367537 626.205542,283.308062 L399.720884,151.305221 Z M645.110442,411.862679 L645.110442,529.568273 C638.953695,528.460894 636.959217,527.2055 631.355422,524.0862 L420.694538,405.286932 C402.964317,395.435647 392.018072,377.073442 392.018072,357.162552 L392.018072,273.443071 L628.329317,404.851107 C634.078916,408.044415 638.788635,410.790934 645.110442,411.862679 L645.110442,411.862679 Z" id="Fill-26" fill="#21D2D6"></path>
                <path d="M921.586345,175.052279 L921.586345,361.512383 C921.586345,381.362551 908.760896,399.691707 891.201885,409.618166 L684.036359,526.807593 C677.680019,530.399712 672.781429,532.696357 665.742972,533.694779 L665.742972,415.746221 C672.800682,414.709293 677.715775,413.840143 684.055612,410.173762 L746.538077,374.750413 L746.538077,288.946639 L683.189214,327.552286 C677.107921,331.108648 672.55589,334.695266 665.79248,335.82296 L665.79248,291.815383 C673.642327,290.632679 678.155851,287.508142 685.045782,283.563962 L914.215081,148.554217 C918.398549,156.387566 921.586345,165.923457 921.586345,175.052279" id="Fill-28" fill="#208484"></path>
                <path d="M682.401898,7.60707493 C673.81539,2.66934182 663.862286,0.11534193 654.249458,0.00549247288 C653.996994,0 654.499177,0 654.249458,0 C644.480212,0 634.343248,2.4798515 625.594834,7.47800182 L415.149921,126.606992 C411.76636,128.545835 408.621541,130.781272 405.773092,133.296824 L631.571637,264.879997 C638.607689,268.941681 646.450527,270.973896 654.304341,270.973896 C654.411364,270.973896 654.515642,270.973896 654.622665,270.971149 C662.34476,270.916225 670.066854,268.88401 676.995883,264.879997 L905.080321,132.857426 C902.009595,130.006833 898.609568,127.49128 894.877497,125.34647 L682.401898,7.60707493 Z" id="Fill-30" fill="#21D2D6"></path>
            </g>
        </g>
    </g>
</svg>